<?xml version="1.0" encoding="utf-8"?>
<!-- Generator: Adobe Illustrator 18.0.0, SVG Export Plug-In . SVG Version: 6.00 Build 0)  -->
<!DOCTYPE svg PUBLIC "-//W3C//DTD SVG 1.1 Tiny//EN" "http://www.w3.org/Graphics/SVG/1.1/DTD/svg11-tiny.dtd">
<svg version="1.1" baseProfile="tiny" id="Layer_1" xmlns="http://www.w3.org/2000/svg" xmlns:xlink="http://www.w3.org/1999/xlink"
	 x="0px" y="0px" viewBox="0 0 100 100" xml:space="preserve">
<g>
	<path fill="#41326B" d="M14.7,48.1c1-18,15.5-32.5,33.4-33.4c5.8-0.3,11.4,0.8,16.3,3c2,0.9,4.3,0.5,5.8-1.1l0,0
		c2.6-2.6,1.8-6.9-1.6-8.4c-5.7-2.5-12-4-18.7-4C25.1,4.3,4.3,25.1,4.3,50c0,6.6,1.4,13,4,18.7c1.5,3.3,5.8,4.1,8.4,1.6l0,0
		c1.5-1.5,1.9-3.8,1.1-5.8C15.5,59.5,14.3,53.9,14.7,48.1z"/>
	<path fill="#41326B" d="M85.3,51.9c-1,18-15.5,32.5-33.4,33.4c-5.8,0.3-11.4-0.8-16.3-3c-2-0.9-4.3-0.5-5.8,1.1l0,0
		c-2.6,2.6-1.8,6.9,1.6,8.4c5.7,2.5,12,4,18.7,4c24.9,0,45.7-20.9,45.7-45.7c0-6.6-1.4-13-4-18.7c-1.5-3.3-5.8-4.1-8.4-1.6l0,0
		c-1.5,1.5-1.9,3.8-1.1,5.8C84.5,40.5,85.7,46.1,85.3,51.9z"/>
	<path fill="#41326B" d="M95.7,4.3c-2-2-5.3-2-7.3,0l-9.9,9.9l-7.4,7.4L21.6,71.1l-7.4,7.4l-9.9,9.9c-2,2-2,5.3,0,7.3l0,0
		c2,2,5.3,2,7.3,0l9.9-9.9l7.4-7.4l49.5-49.5l7.4-7.4l9.9-9.9C97.8,9.5,97.8,6.3,95.7,4.3L95.7,4.3z"/>
</g>
</svg>
